# xmcd
#
# Track frame offsets:
#	150
#	29511
#	55256
#	74671
#	95167
#	114060
#	136182
#	158891
#	188439
#	211658
#	229953
#	244867
#	266744
#	286058
#
# Disc length: 4114
#
# Revision: 3
# Processed by: cddbd v1.5.1PL0 Copyright (c) Steve Scherf et al.
# Submitted via: CDex 1.51
# Normalized: r2:DSETVAR1,TDELIM( - )
#
DISCID=c510100e
DTITLE=Various Artist - The Best in New Age Event CD1
DYEAR=2003
DGENRE=New Age
TTITLE0=J. Pachelbel - Canone
TTITLE1=L. Van Beethoven - Piano sonata in C sharp minor op.27-2 'Moonlight' 2 adagio
TTITLE2=F.Liszt - Sogno D'Amore
TTITLE3=T.Albinoni - Adagio in Sol min. per archi e organo
TTITLE4=J.Rodrigo - Adagio dal 'Concerto de Aranjuez' per chitarra e orchestra
TTITLE5=Johann Sebastian Bach - Orchestral suite no.3 in D major 2.air
TTITLE6=Franz Schubert - Ave Maria
TTITLE7=Antonio Vivaldi - Concerto in D mayor 'Il Cardellino' 2.adagio cantabile
TTITLE8=E.Grieg - Mattino da Peer Gynt suite n.1 op.46
TTITLE9=E.Chopin - Notturno op.9 n.2
TTITLE10=J.S.Bach - Bourèe dalla suite in Mi min.Bwv 996
TTITLE11=A.Borodin - Danza Polovesiana da 'Principe Igor'
TTITLE12=P.I. Tchaikovsky - Il Lago Dei Cigni (scena prima)
TTITLE13=L. Van Beethoven - Romanza in Fa magg. op.50 per violino e orchestra
EXTD=YEAR: 2003
EXTT0=
EXTT1=
EXTT2=
EXTT3=
EXTT4=
EXTT5=
EXTT6=
EXTT7=
EXTT8=
EXTT9=
EXTT10=
EXTT11=
EXTT12=
EXTT13=
PLAYORDER=
